<svg xmlns="http://www.w3.org/2000/svg" width="180.0" height="180.0" version="1.1">
<g>
<!-- x-min'=-90.0 -->
<!-- y-min'=-90.0 -->
<!-- x-max'=0.0 -->
<!-- y-max'=0.0 -->
<line style="stroke-width:2px; stroke:black; fill:white" x1="0.00" y1="180.00" x2="-6.00" y2="180.00" />
<line style="stroke-width:2px; stroke:black; fill:white" x1="-6.00" y1="180.00" x2="-6.00" y2="186.00" />
<line style="stroke-width:2px; stroke:black; fill:white" x1="-6.00" y1="186.00" x2="0.00" y2="186.00" />
<line style="stroke-width:2px; stroke:black; fill:white" x1="0.00" y1="186.00" x2="0.00" y2="192.00" />
<line style="stroke-width:2px; stroke:black; fill:white" x1="0.00" y1="192.00" x2="0.00" y2="198.00" />
<line style="stroke-width:2px; stroke:black; fill:white" x1="0.00" y1="198.00" x2="-6.00" y2="198.00" />
<line style="stroke-width:2px; stroke:black; fill:white" x1="-6.00" y1="198.00" x2="-6.00" y2="192.00" />
<line style="stroke-width:2px; stroke:black; fill:white" x1="-6.00" y1="192.00" x2="-12.00" y2="192.00" />
<line style="stroke-width:2px; stroke:black; fill:white" x1="-12.00" y1="192.00" x2="-12.00" y2="198.00" />
<line style="stroke-width:2px; stroke:black; fill:white" x1="-12.00" y1="198.00" x2="-18.00" y2="198.00" />
<line style="stroke-width:2px; stroke:black; fill:white" x1="-18.00" y1="198.00" x2="-18.00" y2="192.00" />
<line style="stroke-width:2px; stroke:black; fill:white" x1="-18.00" y1="192.00" x2="-18.00" y2="186.00" />
<line style="stroke-width:2px; stroke:black; fill:white" x1="-18.00" y1="186.00" x2="-12.00" y2="186.00" />
<line style="stroke-width:2px; stroke:black; fill:white" x1="-12.00" y1="186.00" x2="-12.00" y2="180.00" />
<line style="stroke-width:2px; stroke:black; fill:white" x1="-12.00" y1="180.00" x2="-18.00" y2="180.00" />
<line style="stroke-width:2px; stroke:black; fill:white" x1="-18.00" y1="180.00" x2="-24.00" y2="180.00" />
<line style="stroke-width:2px; stroke:black; fill:white" x1="-24.00" y1="180.00" x2="-24.00" y2="186.00" />
<line style="stroke-width:2px; stroke:black; fill:white" x1="-24.00" y1="186.00" x2="-30.00" y2="186.00" />
<line style="stroke-width:2px; stroke:black; fill:white" x1="-30.00" y1="186.00" x2="-30.00" y2="180.00" />
<line style="stroke-width:2px; stroke:black; fill:white" x1="-30.00" y1="180.00" x2="-36.00" y2="180.00" />
<line style="stroke-width:2px; stroke:black; fill:white" x1="-36.00" y1="180.00" x2="-42.00" y2="180.00" />
<line style="stroke-width:2px; stroke:black; fill:white" x1="-42.00" y1="180.00" x2="-42.00" y2="186.00" />
<line style="stroke-width:2px; stroke:black; fill:white" x1="-42.00" y1="186.00" x2="-36.00" y2="186.00" />
<line style="stroke-width:2px; stroke:black; fill:white" x1="-36.00" y1="186.00" x2="-36.00" y2="192.00" />
<line style="stroke-width:2px; stroke:black; fill:white" x1="-36.00" y1="192.00" x2="-42.00" y2="192.00" />
<line style="stroke-width:2px; stroke:black; fill:white" x1="-42.00" y1="192.00" x2="-42.00" y2="198.00" />
<line style="stroke-width:2px; stroke:black; fill:white" x1="-42.00" y1="198.00" x2="-36.00" y2="198.00" />
<line style="stroke-width:2px; stroke:black; fill:white" x1="-36.00" y1="198.00" x2="-30.00" y2="198.00" />
<line style="stroke-width:2px; stroke:black; fill:white" x1="-30.00" y1="198.00" x2="-30.00" y2="192.00" />
<line style="stroke-width:2px; stroke:black; fill:white" x1="-30.00" y1="192.00" x2="-24.00" y2="192.00" />
<line style="stroke-width:2px; stroke:black; fill:white" x1="-24.00" y1="192.00" x2="-24.00" y2="198.00" />
<line style="stroke-width:2px; stroke:black; fill:white" x1="-24.00" y1="198.00" x2="-24.00" y2="204.00" />
<line style="stroke-width:2px; stroke:black; fill:white" x1="-24.00" y1="204.00" x2="-24.00" y2="210.00" />
<line style="stroke-width:2px; stroke:black; fill:white" x1="-24.00" y1="210.00" x2="-30.00" y2="210.00" />
<line style="stroke-width:2px; stroke:black; fill:white" x1="-30.00" y1="210.00" x2="-30.00" y2="204.00" />
<line style="stroke-width:2px; stroke:black; fill:white" x1="-30.00" y1="204.00" x2="-36.00" y2="204.00" />
<line style="stroke-width:2px; stroke:black; fill:white" x1="-36.00" y1="204.00" x2="-42.00" y2="204.00" />
<line style="stroke-width:2px; stroke:black; fill:white" x1="-42.00" y1="204.00" x2="-42.00" y2="210.00" />
<line style="stroke-width:2px; stroke:black; fill:white" x1="-42.00" y1="210.00" x2="-36.00" y2="210.00" />
<line style="stroke-width:2px; stroke:black; fill:white" x1="-36.00" y1="210.00" x2="-36.00" y2="216.00" />
<line style="stroke-width:2px; stroke:black; fill:white" x1="-36.00" y1="216.00" x2="-42.00" y2="216.00" />
<line style="stroke-width:2px; stroke:black; fill:white" x1="-42.00" y1="216.00" x2="-42.00" y2="222.00" />
<line style="stroke-width:2px; stroke:black; fill:white" x1="-42.00" y1="222.00" x2="-36.00" y2="222.00" />
<line style="stroke-width:2px; stroke:black; fill:white" x1="-36.00" y1="222.00" x2="-30.00" y2="222.00" />
<line style="stroke-width:2px; stroke:black; fill:white" x1="-30.00" y1="222.00" x2="-30.00" y2="216.00" />
<line style="stroke-width:2px; stroke:black; fill:white" x1="-30.00" y1="216.00" x2="-24.00" y2="216.00" />
<line style="stroke-width:2px; stroke:black; fill:white" x1="-24.00" y1="216.00" x2="-24.00" y2="222.00" />
<line style="stroke-width:2px; stroke:black; fill:white" x1="-24.00" y1="222.00" x2="-18.00" y2="222.00" />
<line style="stroke-width:2px; stroke:black; fill:white" x1="-18.00" y1="222.00" x2="-12.00" y2="222.00" />
<line style="stroke-width:2px; stroke:black; fill:white" x1="-12.00" y1="222.00" x2="-12.00" y2="216.00" />
<line style="stroke-width:2px; stroke:black; fill:white" x1="-12.00" y1="216.00" x2="-18.00" y2="216.00" />
<line style="stroke-width:2px; stroke:black; fill:white" x1="-18.00" y1="216.00" x2="-18.00" y2="210.00" />
<line style="stroke-width:2px; stroke:black; fill:white" x1="-18.00" y1="210.00" x2="-18.00" y2="204.00" />
<line style="stroke-width:2px; stroke:black; fill:white" x1="-18.00" y1="204.00" x2="-12.00" y2="204.00" />
<line style="stroke-width:2px; stroke:black; fill:white" x1="-12.00" y1="204.00" x2="-12.00" y2="210.00" />
<line style="stroke-width:2px; stroke:black; fill:white" x1="-12.00" y1="210.00" x2="-6.00" y2="210.00" />
<line style="stroke-width:2px; stroke:black; fill:white" x1="-6.00" y1="210.00" x2="-6.00" y2="204.00" />
<line style="stroke-width:2px; stroke:black; fill:white" x1="-6.00" y1="204.00" x2="0.00" y2="204.00" />
<line style="stroke-width:2px; stroke:black; fill:white" x1="0.00" y1="204.00" x2="0.00" y2="210.00" />
<line style="stroke-width:2px; stroke:black; fill:white" x1="0.00" y1="210.00" x2="0.00" y2="216.00" />
<line style="stroke-width:2px; stroke:black; fill:white" x1="0.00" y1="216.00" x2="-6.00" y2="216.00" />
<line style="stroke-width:2px; stroke:black; fill:white" x1="-6.00" y1="216.00" x2="-6.00" y2="222.00" />
<line style="stroke-width:2px; stroke:black; fill:white" x1="-6.00" y1="222.00" x2="0.00" y2="222.00" />
<line style="stroke-width:2px; stroke:black; fill:white" x1="0.00" y1="222.00" x2="0.00" y2="228.00" />
<line style="stroke-width:2px; stroke:black; fill:white" x1="0.00" y1="228.00" x2="0.00" y2="234.00" />
<line style="stroke-width:2px; stroke:black; fill:white" x1="0.00" y1="234.00" x2="-6.00" y2="234.00" />
<line style="stroke-width:2px; stroke:black; fill:white" x1="-6.00" y1="234.00" x2="-6.00" y2="228.00" />
<line style="stroke-width:2px; stroke:black; fill:white" x1="-6.00" y1="228.00" x2="-12.00" y2="228.00" />
<line style="stroke-width:2px; stroke:black; fill:white" x1="-12.00" y1="228.00" x2="-18.00" y2="228.00" />
<line style="stroke-width:2px; stroke:black; fill:white" x1="-18.00" y1="228.00" x2="-18.00" y2="234.00" />
<line style="stroke-width:2px; stroke:black; fill:white" x1="-18.00" y1="234.00" x2="-12.00" y2="234.00" />
<line style="stroke-width:2px; stroke:black; fill:white" x1="-12.00" y1="234.00" x2="-12.00" y2="240.00" />
<line style="stroke-width:2px; stroke:black; fill:white" x1="-12.00" y1="240.00" x2="-18.00" y2="240.00" />
<line style="stroke-width:2px; stroke:black; fill:white" x1="-18.00" y1="240.00" x2="-18.00" y2="246.00" />
<line style="stroke-width:2px; stroke:black; fill:white" x1="-18.00" y1="246.00" x2="-12.00" y2="246.00" />
<line style="stroke-width:2px; stroke:black; fill:white" x1="-12.00" y1="246.00" x2="-6.00" y2="246.00" />
<line style="stroke-width:2px; stroke:black; fill:white" x1="-6.00" y1="246.00" x2="-6.00" y2="240.00" />
<line style="stroke-width:2px; stroke:black; fill:white" x1="-6.00" y1="240.00" x2="0.00" y2="240.00" />
<line style="stroke-width:2px; stroke:black; fill:white" x1="0.00" y1="240.00" x2="0.00" y2="246.00" />
<line style="stroke-width:2px; stroke:black; fill:white" x1="0.00" y1="246.00" x2="0.00" y2="252.00" />
<line style="stroke-width:2px; stroke:black; fill:white" x1="0.00" y1="252.00" x2="-6.00" y2="252.00" />
<line style="stroke-width:2px; stroke:black; fill:white" x1="-6.00" y1="252.00" x2="-6.00" y2="258.00" />
<line style="stroke-width:2px; stroke:black; fill:white" x1="-6.00" y1="258.00" x2="0.00" y2="258.00" />
<line style="stroke-width:2px; stroke:black; fill:white" x1="0.00" y1="258.00" x2="0.00" y2="264.00" />
<line style="stroke-width:2px; stroke:black; fill:white" x1="0.00" y1="264.00" x2="0.00" y2="270.00" />
<line style="stroke-width:2px; stroke:black; fill:white" x1="0.00" y1="270.00" x2="-6.00" y2="270.00" />
<line style="stroke-width:2px; stroke:black; fill:white" x1="-6.00" y1="270.00" x2="-6.00" y2="264.00" />
<line style="stroke-width:2px; stroke:black; fill:white" x1="-6.00" y1="264.00" x2="-12.00" y2="264.00" />
<line style="stroke-width:2px; stroke:black; fill:white" x1="-12.00" y1="264.00" x2="-12.00" y2="270.00" />
<line style="stroke-width:2px; stroke:black; fill:white" x1="-12.00" y1="270.00" x2="-18.00" y2="270.00" />
<line style="stroke-width:2px; stroke:black; fill:white" x1="-18.00" y1="270.00" x2="-18.00" y2="264.00" />
<line style="stroke-width:2px; stroke:black; fill:white" x1="-18.00" y1="264.00" x2="-18.00" y2="258.00" />
<line style="stroke-width:2px; stroke:black; fill:white" x1="-18.00" y1="258.00" x2="-12.00" y2="258.00" />
<line style="stroke-width:2px; stroke:black; fill:white" x1="-12.00" y1="258.00" x2="-12.00" y2="252.00" />
<line style="stroke-width:2px; stroke:black; fill:white" x1="-12.00" y1="252.00" x2="-18.00" y2="252.00" />
<line style="stroke-width:2px; stroke:black; fill:white" x1="-18.00" y1="252.00" x2="-24.00" y2="252.00" />
<line style="stroke-width:2px; stroke:black; fill:white" x1="-24.00" y1="252.00" x2="-30.00" y2="252.00" />
<line style="stroke-width:2px; stroke:black; fill:white" x1="-30.00" y1="252.00" x2="-30.00" y2="258.00" />
<line style="stroke-width:2px; stroke:black; fill:white" x1="-30.00" y1="258.00" x2="-24.00" y2="258.00" />
<line style="stroke-width:2px; stroke:black; fill:white" x1="-24.00" y1="258.00" x2="-24.00" y2="264.00" />
<line style="stroke-width:2px; stroke:black; fill:white" x1="-24.00" y1="264.00" x2="-24.00" y2="270.00" />
<line style="stroke-width:2px; stroke:black; fill:white" x1="-24.00" y1="270.00" x2="-30.00" y2="270.00" />
<line style="stroke-width:2px; stroke:black; fill:white" x1="-30.00" y1="270.00" x2="-30.00" y2="264.00" />
<line style="stroke-width:2px; stroke:black; fill:white" x1="-30.00" y1="264.00" x2="-36.00" y2="264.00" />
<line style="stroke-width:2px; stroke:black; fill:white" x1="-36.00" y1="264.00" x2="-36.00" y2="270.00" />
<line style="stroke-width:2px; stroke:black; fill:white" x1="-36.00" y1="270.00" x2="-42.00" y2="270.00" />
<line style="stroke-width:2px; stroke:black; fill:white" x1="-42.00" y1="270.00" x2="-42.00" y2="264.00" />
<line style="stroke-width:2px; stroke:black; fill:white" x1="-42.00" y1="264.00" x2="-42.00" y2="258.00" />
<line style="stroke-width:2px; stroke:black; fill:white" x1="-42.00" y1="258.00" x2="-36.00" y2="258.00" />
<line style="stroke-width:2px; stroke:black; fill:white" x1="-36.00" y1="258.00" x2="-36.00" y2="252.00" />
<line style="stroke-width:2px; stroke:black; fill:white" x1="-36.00" y1="252.00" x2="-42.00" y2="252.00" />
<line style="stroke-width:2px; stroke:black; fill:white" x1="-42.00" y1="252.00" x2="-42.00" y2="246.00" />
<line style="stroke-width:2px; stroke:black; fill:white" x1="-42.00" y1="246.00" x2="-42.00" y2="240.00" />
<line style="stroke-width:2px; stroke:black; fill:white" x1="-42.00" y1="240.00" x2="-36.00" y2="240.00" />
<line style="stroke-width:2px; stroke:black; fill:white" x1="-36.00" y1="240.00" x2="-36.00" y2="246.00" />
<line style="stroke-width:2px; stroke:black; fill:white" x1="-36.00" y1="246.00" x2="-30.00" y2="246.00" />
<line style="stroke-width:2px; stroke:black; fill:white" x1="-30.00" y1="246.00" x2="-24.00" y2="246.00" />
<line style="stroke-width:2px; stroke:black; fill:white" x1="-24.00" y1="246.00" x2="-24.00" y2="240.00" />
<line style="stroke-width:2px; stroke:black; fill:white" x1="-24.00" y1="240.00" x2="-30.00" y2="240.00" />
<line style="stroke-width:2px; stroke:black; fill:white" x1="-30.00" y1="240.00" x2="-30.00" y2="234.00" />
<line style="stroke-width:2px; stroke:black; fill:white" x1="-30.00" y1="234.00" x2="-24.00" y2="234.00" />
<line style="stroke-width:2px; stroke:black; fill:white" x1="-24.00" y1="234.00" x2="-24.00" y2="228.00" />
<line style="stroke-width:2px; stroke:black; fill:white" x1="-24.00" y1="228.00" x2="-30.00" y2="228.00" />
<line style="stroke-width:2px; stroke:black; fill:white" x1="-30.00" y1="228.00" x2="-36.00" y2="228.00" />
<line style="stroke-width:2px; stroke:black; fill:white" x1="-36.00" y1="228.00" x2="-36.00" y2="234.00" />
<line style="stroke-width:2px; stroke:black; fill:white" x1="-36.00" y1="234.00" x2="-42.00" y2="234.00" />
<line style="stroke-width:2px; stroke:black; fill:white" x1="-42.00" y1="234.00" x2="-42.00" y2="228.00" />
<line style="stroke-width:2px; stroke:black; fill:white" x1="-42.00" y1="228.00" x2="-48.00" y2="228.00" />
<line style="stroke-width:2px; stroke:black; fill:white" x1="-48.00" y1="228.00" x2="-48.00" y2="234.00" />
<line style="stroke-width:2px; stroke:black; fill:white" x1="-48.00" y1="234.00" x2="-54.00" y2="234.00" />
<line style="stroke-width:2px; stroke:black; fill:white" x1="-54.00" y1="234.00" x2="-54.00" y2="228.00" />
<line style="stroke-width:2px; stroke:black; fill:white" x1="-54.00" y1="228.00" x2="-60.00" y2="228.00" />
<line style="stroke-width:2px; stroke:black; fill:white" x1="-60.00" y1="228.00" x2="-66.00" y2="228.00" />
<line style="stroke-width:2px; stroke:black; fill:white" x1="-66.00" y1="228.00" x2="-66.00" y2="234.00" />
<line style="stroke-width:2px; stroke:black; fill:white" x1="-66.00" y1="234.00" x2="-60.00" y2="234.00" />
<line style="stroke-width:2px; stroke:black; fill:white" x1="-60.00" y1="234.00" x2="-60.00" y2="240.00" />
<line style="stroke-width:2px; stroke:black; fill:white" x1="-60.00" y1="240.00" x2="-66.00" y2="240.00" />
<line style="stroke-width:2px; stroke:black; fill:white" x1="-66.00" y1="240.00" x2="-66.00" y2="246.00" />
<line style="stroke-width:2px; stroke:black; fill:white" x1="-66.00" y1="246.00" x2="-60.00" y2="246.00" />
<line style="stroke-width:2px; stroke:black; fill:white" x1="-60.00" y1="246.00" x2="-54.00" y2="246.00" />
<line style="stroke-width:2px; stroke:black; fill:white" x1="-54.00" y1="246.00" x2="-54.00" y2="240.00" />
<line style="stroke-width:2px; stroke:black; fill:white" x1="-54.00" y1="240.00" x2="-48.00" y2="240.00" />
<line style="stroke-width:2px; stroke:black; fill:white" x1="-48.00" y1="240.00" x2="-48.00" y2="246.00" />
<line style="stroke-width:2px; stroke:black; fill:white" x1="-48.00" y1="246.00" x2="-48.00" y2="252.00" />
<line style="stroke-width:2px; stroke:black; fill:white" x1="-48.00" y1="252.00" x2="-54.00" y2="252.00" />
<line style="stroke-width:2px; stroke:black; fill:white" x1="-54.00" y1="252.00" x2="-54.00" y2="258.00" />
<line style="stroke-width:2px; stroke:black; fill:white" x1="-54.00" y1="258.00" x2="-48.00" y2="258.00" />
<line style="stroke-width:2px; stroke:black; fill:white" x1="-48.00" y1="258.00" x2="-48.00" y2="264.00" />
<line style="stroke-width:2px; stroke:black; fill:white" x1="-48.00" y1="264.00" x2="-48.00" y2="270.00" />
<line style="stroke-width:2px; stroke:black; fill:white" x1="-48.00" y1="270.00" x2="-54.00" y2="270.00" />
<line style="stroke-width:2px; stroke:black; fill:white" x1="-54.00" y1="270.00" x2="-54.00" y2="264.00" />
<line style="stroke-width:2px; stroke:black; fill:white" x1="-54.00" y1="264.00" x2="-60.00" y2="264.00" />
<line style="stroke-width:2px; stroke:black; fill:white" x1="-60.00" y1="264.00" x2="-60.00" y2="270.00" />
<line style="stroke-width:2px; stroke:black; fill:white" x1="-60.00" y1="270.00" x2="-66.00" y2="270.00" />
<line style="stroke-width:2px; stroke:black; fill:white" x1="-66.00" y1="270.00" x2="-66.00" y2="264.00" />
<line style="stroke-width:2px; stroke:black; fill:white" x1="-66.00" y1="264.00" x2="-66.00" y2="258.00" />
<line style="stroke-width:2px; stroke:black; fill:white" x1="-66.00" y1="258.00" x2="-60.00" y2="258.00" />
<line style="stroke-width:2px; stroke:black; fill:white" x1="-60.00" y1="258.00" x2="-60.00" y2="252.00" />
<line style="stroke-width:2px; stroke:black; fill:white" x1="-60.00" y1="252.00" x2="-66.00" y2="252.00" />
<line style="stroke-width:2px; stroke:black; fill:white" x1="-66.00" y1="252.00" x2="-72.00" y2="252.00" />
<line style="stroke-width:2px; stroke:black; fill:white" x1="-72.00" y1="252.00" x2="-78.00" y2="252.00" />
<line style="stroke-width:2px; stroke:black; fill:white" x1="-78.00" y1="252.00" x2="-78.00" y2="258.00" />
<line style="stroke-width:2px; stroke:black; fill:white" x1="-78.00" y1="258.00" x2="-72.00" y2="258.00" />
<line style="stroke-width:2px; stroke:black; fill:white" x1="-72.00" y1="258.00" x2="-72.00" y2="264.00" />
<line style="stroke-width:2px; stroke:black; fill:white" x1="-72.00" y1="264.00" x2="-72.00" y2="270.00" />
<line style="stroke-width:2px; stroke:black; fill:white" x1="-72.00" y1="270.00" x2="-78.00" y2="270.00" />
<line style="stroke-width:2px; stroke:black; fill:white" x1="-78.00" y1="270.00" x2="-78.00" y2="264.00" />
<line style="stroke-width:2px; stroke:black; fill:white" x1="-78.00" y1="264.00" x2="-84.00" y2="264.00" />
<line style="stroke-width:2px; stroke:black; fill:white" x1="-84.00" y1="264.00" x2="-84.00" y2="270.00" />
<line style="stroke-width:2px; stroke:black; fill:white" x1="-84.00" y1="270.00" x2="-90.00" y2="270.00" />
<line style="stroke-width:2px; stroke:black; fill:white" x1="-90.00" y1="270.00" x2="-90.00" y2="264.00" />
<line style="stroke-width:2px; stroke:black; fill:white" x1="-90.00" y1="264.00" x2="-90.00" y2="258.00" />
<line style="stroke-width:2px; stroke:black; fill:white" x1="-90.00" y1="258.00" x2="-84.00" y2="258.00" />
<line style="stroke-width:2px; stroke:black; fill:white" x1="-84.00" y1="258.00" x2="-84.00" y2="252.00" />
<line style="stroke-width:2px; stroke:black; fill:white" x1="-84.00" y1="252.00" x2="-90.00" y2="252.00" />
<line style="stroke-width:2px; stroke:black; fill:white" x1="-90.00" y1="252.00" x2="-90.00" y2="246.00" />
<line style="stroke-width:2px; stroke:black; fill:white" x1="-90.00" y1="246.00" x2="-90.00" y2="240.00" />
<line style="stroke-width:2px; stroke:black; fill:white" x1="-90.00" y1="240.00" x2="-84.00" y2="240.00" />
<line style="stroke-width:2px; stroke:black; fill:white" x1="-84.00" y1="240.00" x2="-84.00" y2="246.00" />
<line style="stroke-width:2px; stroke:black; fill:white" x1="-84.00" y1="246.00" x2="-78.00" y2="246.00" />
<line style="stroke-width:2px; stroke:black; fill:white" x1="-78.00" y1="246.00" x2="-72.00" y2="246.00" />
<line style="stroke-width:2px; stroke:black; fill:white" x1="-72.00" y1="246.00" x2="-72.00" y2="240.00" />
<line style="stroke-width:2px; stroke:black; fill:white" x1="-72.00" y1="240.00" x2="-78.00" y2="240.00" />
<line style="stroke-width:2px; stroke:black; fill:white" x1="-78.00" y1="240.00" x2="-78.00" y2="234.00" />
<line style="stroke-width:2px; stroke:black; fill:white" x1="-78.00" y1="234.00" x2="-72.00" y2="234.00" />
<line style="stroke-width:2px; stroke:black; fill:white" x1="-72.00" y1="234.00" x2="-72.00" y2="228.00" />
<line style="stroke-width:2px; stroke:black; fill:white" x1="-72.00" y1="228.00" x2="-78.00" y2="228.00" />
<line style="stroke-width:2px; stroke:black; fill:white" x1="-78.00" y1="228.00" x2="-84.00" y2="228.00" />
<line style="stroke-width:2px; stroke:black; fill:white" x1="-84.00" y1="228.00" x2="-84.00" y2="234.00" />
<line style="stroke-width:2px; stroke:black; fill:white" x1="-84.00" y1="234.00" x2="-90.00" y2="234.00" />
<line style="stroke-width:2px; stroke:black; fill:white" x1="-90.00" y1="234.00" x2="-90.00" y2="228.00" />
<line style="stroke-width:2px; stroke:black; fill:white" x1="-90.00" y1="228.00" x2="-90.00" y2="222.00" />
<line style="stroke-width:2px; stroke:black; fill:white" x1="-90.00" y1="222.00" x2="-84.00" y2="222.00" />
<line style="stroke-width:2px; stroke:black; fill:white" x1="-84.00" y1="222.00" x2="-84.00" y2="216.00" />
<line style="stroke-width:2px; stroke:black; fill:white" x1="-84.00" y1="216.00" x2="-90.00" y2="216.00" />
<line style="stroke-width:2px; stroke:black; fill:white" x1="-90.00" y1="216.00" x2="-90.00" y2="210.00" />
<line style="stroke-width:2px; stroke:black; fill:white" x1="-90.00" y1="210.00" x2="-90.00" y2="204.00" />
<line style="stroke-width:2px; stroke:black; fill:white" x1="-90.00" y1="204.00" x2="-84.00" y2="204.00" />
<line style="stroke-width:2px; stroke:black; fill:white" x1="-84.00" y1="204.00" x2="-84.00" y2="210.00" />
<line style="stroke-width:2px; stroke:black; fill:white" x1="-84.00" y1="210.00" x2="-78.00" y2="210.00" />
<line style="stroke-width:2px; stroke:black; fill:white" x1="-78.00" y1="210.00" x2="-78.00" y2="204.00" />
<line style="stroke-width:2px; stroke:black; fill:white" x1="-78.00" y1="204.00" x2="-72.00" y2="204.00" />
<line style="stroke-width:2px; stroke:black; fill:white" x1="-72.00" y1="204.00" x2="-72.00" y2="210.00" />
<line style="stroke-width:2px; stroke:black; fill:white" x1="-72.00" y1="210.00" x2="-72.00" y2="216.00" />
<line style="stroke-width:2px; stroke:black; fill:white" x1="-72.00" y1="216.00" x2="-78.00" y2="216.00" />
<line style="stroke-width:2px; stroke:black; fill:white" x1="-78.00" y1="216.00" x2="-78.00" y2="222.00" />
<line style="stroke-width:2px; stroke:black; fill:white" x1="-78.00" y1="222.00" x2="-72.00" y2="222.00" />
<line style="stroke-width:2px; stroke:black; fill:white" x1="-72.00" y1="222.00" x2="-66.00" y2="222.00" />
<line style="stroke-width:2px; stroke:black; fill:white" x1="-66.00" y1="222.00" x2="-66.00" y2="216.00" />
<line style="stroke-width:2px; stroke:black; fill:white" x1="-66.00" y1="216.00" x2="-60.00" y2="216.00" />
<line style="stroke-width:2px; stroke:black; fill:white" x1="-60.00" y1="216.00" x2="-60.00" y2="222.00" />
<line style="stroke-width:2px; stroke:black; fill:white" x1="-60.00" y1="222.00" x2="-54.00" y2="222.00" />
<line style="stroke-width:2px; stroke:black; fill:white" x1="-54.00" y1="222.00" x2="-48.00" y2="222.00" />
<line style="stroke-width:2px; stroke:black; fill:white" x1="-48.00" y1="222.00" x2="-48.00" y2="216.00" />
<line style="stroke-width:2px; stroke:black; fill:white" x1="-48.00" y1="216.00" x2="-54.00" y2="216.00" />
<line style="stroke-width:2px; stroke:black; fill:white" x1="-54.00" y1="216.00" x2="-54.00" y2="210.00" />
<line style="stroke-width:2px; stroke:black; fill:white" x1="-54.00" y1="210.00" x2="-48.00" y2="210.00" />
<line style="stroke-width:2px; stroke:black; fill:white" x1="-48.00" y1="210.00" x2="-48.00" y2="204.00" />
<line style="stroke-width:2px; stroke:black; fill:white" x1="-48.00" y1="204.00" x2="-54.00" y2="204.00" />
<line style="stroke-width:2px; stroke:black; fill:white" x1="-54.00" y1="204.00" x2="-60.00" y2="204.00" />
<line style="stroke-width:2px; stroke:black; fill:white" x1="-60.00" y1="204.00" x2="-60.00" y2="210.00" />
<line style="stroke-width:2px; stroke:black; fill:white" x1="-60.00" y1="210.00" x2="-66.00" y2="210.00" />
<line style="stroke-width:2px; stroke:black; fill:white" x1="-66.00" y1="210.00" x2="-66.00" y2="204.00" />
<line style="stroke-width:2px; stroke:black; fill:white" x1="-66.00" y1="204.00" x2="-66.00" y2="198.00" />
<line style="stroke-width:2px; stroke:black; fill:white" x1="-66.00" y1="198.00" x2="-66.00" y2="192.00" />
<line style="stroke-width:2px; stroke:black; fill:white" x1="-66.00" y1="192.00" x2="-60.00" y2="192.00" />
<line style="stroke-width:2px; stroke:black; fill:white" x1="-60.00" y1="192.00" x2="-60.00" y2="198.00" />
<line style="stroke-width:2px; stroke:black; fill:white" x1="-60.00" y1="198.00" x2="-54.00" y2="198.00" />
<line style="stroke-width:2px; stroke:black; fill:white" x1="-54.00" y1="198.00" x2="-48.00" y2="198.00" />
<line style="stroke-width:2px; stroke:black; fill:white" x1="-48.00" y1="198.00" x2="-48.00" y2="192.00" />
<line style="stroke-width:2px; stroke:black; fill:white" x1="-48.00" y1="192.00" x2="-54.00" y2="192.00" />
<line style="stroke-width:2px; stroke:black; fill:white" x1="-54.00" y1="192.00" x2="-54.00" y2="186.00" />
<line style="stroke-width:2px; stroke:black; fill:white" x1="-54.00" y1="186.00" x2="-48.00" y2="186.00" />
<line style="stroke-width:2px; stroke:black; fill:white" x1="-48.00" y1="186.00" x2="-48.00" y2="180.00" />
<line style="stroke-width:2px; stroke:black; fill:white" x1="-48.00" y1="180.00" x2="-54.00" y2="180.00" />
<line style="stroke-width:2px; stroke:black; fill:white" x1="-54.00" y1="180.00" x2="-60.00" y2="180.00" />
<line style="stroke-width:2px; stroke:black; fill:white" x1="-60.00" y1="180.00" x2="-60.00" y2="186.00" />
<line style="stroke-width:2px; stroke:black; fill:white" x1="-60.00" y1="186.00" x2="-66.00" y2="186.00" />
<line style="stroke-width:2px; stroke:black; fill:white" x1="-66.00" y1="186.00" x2="-66.00" y2="180.00" />
<line style="stroke-width:2px; stroke:black; fill:white" x1="-66.00" y1="180.00" x2="-72.00" y2="180.00" />
<line style="stroke-width:2px; stroke:black; fill:white" x1="-72.00" y1="180.00" x2="-78.00" y2="180.00" />
<line style="stroke-width:2px; stroke:black; fill:white" x1="-78.00" y1="180.00" x2="-78.00" y2="186.00" />
<line style="stroke-width:2px; stroke:black; fill:white" x1="-78.00" y1="186.00" x2="-72.00" y2="186.00" />
<line style="stroke-width:2px; stroke:black; fill:white" x1="-72.00" y1="186.00" x2="-72.00" y2="192.00" />
<line style="stroke-width:2px; stroke:black; fill:white" x1="-72.00" y1="192.00" x2="-72.00" y2="198.00" />
<line style="stroke-width:2px; stroke:black; fill:white" x1="-72.00" y1="198.00" x2="-78.00" y2="198.00" />
<line style="stroke-width:2px; stroke:black; fill:white" x1="-78.00" y1="198.00" x2="-78.00" y2="192.00" />
<line style="stroke-width:2px; stroke:black; fill:white" x1="-78.00" y1="192.00" x2="-84.00" y2="192.00" />
<line style="stroke-width:2px; stroke:black; fill:white" x1="-84.00" y1="192.00" x2="-84.00" y2="198.00" />
<line style="stroke-width:2px; stroke:black; fill:white" x1="-84.00" y1="198.00" x2="-90.00" y2="198.00" />
<line style="stroke-width:2px; stroke:black; fill:white" x1="-90.00" y1="198.00" x2="-90.00" y2="192.00" />
<line style="stroke-width:2px; stroke:black; fill:white" x1="-90.00" y1="192.00" x2="-90.00" y2="186.00" />
<line style="stroke-width:2px; stroke:black; fill:white" x1="-90.00" y1="186.00" x2="-84.00" y2="186.00" />
<line style="stroke-width:2px; stroke:black; fill:white" x1="-84.00" y1="186.00" x2="-84.00" y2="180.00" />
<line style="stroke-width:2px; stroke:black; fill:white" x1="-84.00" y1="180.00" x2="-90.00" y2="180.00" />
</g>
</svg>